<svg xmlns="http://www.w3.org/2000/svg" xml:space="preserve" width="2000" height="1500" data-id="lg_eBTPxChDwQCx9Hc7NK" data-version="1" viewBox="0 0 2000 1500"><path fill="#fff" stroke="transparent" d="M0 0h2000v1500H0z"/><g data-padding="20"><g transform="translate(-1661.29 -1256.446)scale(2.59182)"><rect width="215.489" height="140.394" x="414.586" y="400.758" fill="#ad79e1" paint-order="stroke" rx="19" ry="19" transform="translate(154.904 100.68)scale(1.43)"/><rect width="199.902" height="111.87" x="422.38" y="415.02" fill="none" rx="0" ry="0" transform="translate(162.897 101.295)scale(1.43)"/><path fill="#fff" d="M884.377 767.281q0 29.158-16.416 40.626-15.158 10.61-41.627 10.61h-40.07v-2.687h9.352v-93.709h-9.352v-2.703h43.744q27.184 0 40.783 11.125 13.585 11.111 13.585 36.737m-61.16-45.16v93.709h5.376q14.3 0 20.463-10.11 6.164-10.125 6.164-33.92v-8.208q0-31.846-12.184-38.367-5.806-3.103-16.416-3.103Zm105.619 97.813q-18.261 0-27.4-9.41-9.136-9.41-9.136-26.183 0-16.788 10.267-25.697 10.267-8.923 26.126-8.923 32.132 0 30.86 32.275h-39.926v5.52q0 13.885 3.546 20.963 3.532 7.079 12.313 7.079 16.416 0 21.52-17.56l2.546.428q-2.688 10.182-9.695 15.845t-21.021 5.663m-9.066-47.705v6.935h14.586v-6.935q0-11.469-1.344-15.644t-5.377-4.176q-4.047 0-5.95 4.462-1.915 4.461-1.915 15.358m49.25-18.546h-5.806v-2.547h42.328v2.546h-8.907l16.988 47.004 15.287-47.004h-9.481v-2.546h19.105v2.546h-6.22l-20.965 64.836h-16.13Z"/><path fill="#79e0ae" d="m1292.344 737.061-51.3 29.7v-87.21h-189v189h189v-70.47l64.8-37.53Zm-59.4 123.39h-172.8v-172.8h172.8v83.7l-43.47 25.11-17.55 18.36-11.07-18.9-5.13-1.62-61.02 27.27 60.75-102.33-4.59-5.94-70.2 21.6 2.43 7.83 60.21-18.63-62.1 104.49 5.13 5.67 69.66-31.32 14.31 24.84 8.37-1.89 4.05 7.02 24.57-5.94 25.92-14.85v48.33Zm-34.29-47.79-16.47 3.78 11.61-12.42Zm7.29-3.78-5.4-9.45 67.77-39.15 5.4 9.45Zm81.81-47.25-7.02 4.05-5.4-9.45 7.02-4.05Z"/></g><path fill="transparent" stroke="transparent" stroke-width="2.688" d="M250 479.839h1500v540.322H250z"/></g></svg>